<?xml version="1.0" standalone="no"?>
<!DOCTYPE svg PUBLIC "-//W3C//DTD SVG 20010904//EN"
 "http://www.w3.org/TR/2001/REC-SVG-20010904/DTD/svg10.dtd">
<svg version="1.0" xmlns="http://www.w3.org/2000/svg"
 width="720.000000pt" height="720.000000pt" viewBox="0 0 720.000000 720.000000"
 preserveAspectRatio="xMidYMid meet">
<metadata>
Created by potrace 1.11, written by Peter Selinger 2001-2013
</metadata>
<g transform="translate(0.000000,720.000000) scale(0.100000,-0.100000)"
fill="#000000" stroke="none">
<path d="M3329 6226 c-2 -2 -85 -6 -184 -10 -434 -15 -870 -71 -1205 -155
-140 -35 -215 -51 -237 -51 -12 0 -43 -9 -68 -20 l-47 -20 7 -318 c4 -174 8
-337 10 -362 2 -34 -2 -50 -17 -66 -19 -22 -19 -22 1 -36 18 -13 20 -26 21
-134 2 -248 11 -419 26 -466 5 -17 -24 -18 -520 -18 l-526 0 0 -400 0 -400
454 0 c513 0 466 9 467 -88 0 -77 23 -206 46 -267 22 -56 40 -89 98 -179 75
-117 195 -350 195 -380 0 -15 42 -56 57 -56 22 0 43 -32 43 -66 0 -30 -5 -36
-44 -56 -53 -27 -93 -79 -134 -174 -36 -83 -72 -201 -72 -238 0 -27 -24 -109
-85 -286 -18 -52 -38 -120 -45 -150 -7 -30 -17 -61 -23 -68 -7 -9 -7 -16 1
-24 16 -16 93 151 142 309 166 529 166 530 214 564 22 16 43 26 47 22 13 -13
43 -239 35 -260 -7 -16 -12 -13 -41 22 -32 37 -63 43 -37 7 6 -9 19 -33 27
-52 9 -19 24 -44 35 -55 10 -11 22 -32 25 -47 4 -17 14 -28 24 -28 10 0 24
-11 31 -25 7 -14 17 -25 22 -25 4 0 41 -28 81 -63 39 -35 97 -81 127 -102 179
-126 343 -251 361 -276 11 -16 35 -36 52 -44 42 -19 182 -120 437 -316 149
-114 298 -272 374 -396 21 -34 47 -65 57 -68 21 -7 89 -101 143 -200 21 -38
52 -92 69 -118 28 -45 32 -48 66 -45 33 3 37 7 50 48 8 25 30 83 49 130 132
324 123 307 207 370 58 43 425 406 425 420 0 5 22 34 49 65 46 53 81 124 81
167 0 12 -7 17 -22 15 -23 -2 -23 -1 -22 110 2 111 2 112 35 152 19 22 39 41
46 41 17 0 57 -73 83 -152 28 -88 35 -269 12 -310 -13 -22 -14 -30 -4 -40 7
-7 12 -21 12 -33 0 -19 39 -134 98 -290 26 -67 27 -76 23 -215 -3 -80 -5 -211
-5 -293 -1 -81 -4 -147 -9 -147 -9 0 -75 73 -104 116 -13 18 -28 57 -34 86
-15 75 -54 189 -75 224 -27 44 -63 84 -108 120 -36 30 -42 32 -100 27 -72 -6
-193 -44 -248 -79 -62 -39 -116 -93 -155 -153 -20 -31 -44 -64 -52 -74 -9 -11
-27 -38 -41 -62 -81 -140 -100 -174 -100 -180 0 -3 -11 -30 -24 -58 -33 -75
-49 -126 -42 -142 9 -25 21 -17 36 22 40 112 146 309 211 393 112 145 184 213
252 239 32 12 63 19 68 16 5 -4 6 -18 3 -33 -9 -34 -121 -254 -157 -307 -15
-22 -27 -44 -27 -49 0 -5 -8 -19 -18 -30 -10 -12 -36 -50 -57 -86 -21 -36 -51
-81 -67 -100 -15 -19 -28 -38 -28 -43 0 -18 -83 -127 -101 -132 -10 -4 -31 2
-46 13 -15 10 -57 36 -93 57 -36 21 -103 66 -150 100 -47 34 -110 78 -140 98
-30 20 -95 64 -144 97 -49 34 -120 77 -158 96 -37 19 -68 38 -68 42 0 4 -15
16 -32 26 -18 11 -42 27 -53 37 -11 10 -41 25 -65 34 -25 9 -55 23 -68 31
l-23 15 45 57 c58 76 62 79 124 86 65 7 90 -7 126 -67 28 -49 119 -136 269
-261 118 -97 234 -211 243 -238 6 -19 34 -25 34 -7 0 22 -112 154 -182 213
-39 34 -114 98 -166 144 -53 45 -98 82 -102 82 -3 0 -25 28 -48 63 -64 97 -75
105 -162 112 l-75 6 -65 -81 c-36 -44 -84 -104 -108 -133 -23 -29 -72 -91
-108 -139 -37 -49 -70 -88 -74 -88 -5 0 -13 -12 -19 -28 -6 -15 -39 -68 -73
-119 -35 -51 -89 -133 -121 -182 -33 -50 -62 -89 -66 -86 -7 4 -42 86 -78 180
-77 205 -278 610 -330 667 -21 23 -96 138 -207 316 -32 50 -63 95 -70 100 -19
11 -81 93 -107 140 -26 49 -51 52 -59 8 -4 -25 -14 -32 -80 -56 -41 -15 -100
-38 -130 -50 -55 -22 -99 -39 -260 -99 -47 -18 -114 -44 -150 -58 -36 -14 -85
-32 -110 -40 -25 -8 -65 -23 -90 -33 -49 -19 -137 -50 -270 -95 -47 -15 -114
-41 -149 -57 -35 -16 -118 -52 -185 -79 -66 -28 -125 -54 -129 -59 -5 -4 -7
-17 -5 -29 3 -20 4 -20 68 8 100 44 423 170 482 188 29 8 58 19 63 23 6 5 26
11 46 15 20 4 85 25 145 47 60 22 147 53 194 70 46 17 94 36 105 44 11 7 92
38 180 68 88 31 190 72 227 91 37 19 74 35 81 35 8 0 37 -35 64 -78 27 -42 79
-114 115 -158 115 -143 254 -368 373 -604 49 -98 115 -248 115 -262 0 -5 10
-25 23 -46 12 -20 42 -82 65 -137 49 -114 65 -140 85 -132 8 3 34 41 57 84 71
129 113 196 148 236 18 21 38 49 44 63 13 28 43 32 57 5 10 -19 81 -72 186
-140 100 -65 306 -191 312 -191 3 0 17 -8 31 -18 35 -23 137 -64 230 -92 39
-12 72 -25 73 -28 0 -4 2 -16 3 -27 1 -11 8 -37 15 -58 l13 -37 239 0 c227 0
239 1 239 19 0 26 38 71 60 71 24 0 107 93 177 200 31 47 63 96 73 110 10 14
27 43 39 65 23 44 33 59 73 121 28 42 160 312 172 352 9 27 22 28 36 2 13 -25
70 -208 70 -225 0 -13 98 -150 136 -190 11 -11 31 -35 46 -53 15 -18 41 -44
57 -58 29 -24 30 -24 40 -5 9 16 6 25 -13 48 -19 23 -26 52 -40 153 -16 122
-16 151 -1 390 7 107 5 122 -20 210 -15 52 -38 119 -52 149 -26 55 -53 137
-53 159 0 10 8 9 30 -5 17 -9 30 -20 30 -24 0 -8 106 -74 220 -138 100 -56
244 -143 263 -159 8 -7 50 -31 93 -54 44 -22 86 -46 94 -53 8 -7 20 -14 25
-16 24 -9 352 -184 375 -199 14 -10 99 -57 190 -105 146 -78 228 -127 480
-289 36 -23 99 -62 140 -86 41 -24 91 -53 110 -65 20 -12 56 -32 80 -45 25
-12 69 -41 98 -63 50 -38 53 -42 48 -76 -19 -132 -19 -141 2 -141 16 0 23 10
31 50 22 104 6 181 -41 195 -11 4 -42 22 -67 40 -25 18 -64 42 -86 54 -22 12
-78 46 -125 76 -47 30 -114 70 -150 91 -36 20 -130 78 -210 129 -80 51 -185
114 -235 140 -49 27 -148 82 -218 122 -71 41 -136 77 -145 81 -29 12 -192 102
-302 167 -58 34 -150 87 -205 117 -84 47 -267 161 -406 254 -19 13 -41 24 -48
24 -7 0 -27 10 -43 22 l-31 21 9 116 c13 182 11 199 -31 292 -20 46 -41 91
-46 99 -20 34 -22 44 -10 74 41 100 60 200 75 386 9 107 16 230 16 273 0 44 4
77 10 77 5 0 39 -10 75 -21 56 -19 68 -20 96 -9 33 14 102 110 147 205 13 28
28 59 34 70 111 203 121 236 112 387 -3 69 -3 152 0 182 l7 56 610 0 609 0 0
400 0 400 -730 0 -731 0 6 78 c4 42 10 107 16 144 28 205 57 779 52 1071 -1
118 -7 132 -56 142 -18 4 -45 11 -62 15 -53 16 -189 49 -225 56 -19 3 -67 17
-107 30 -39 12 -114 27 -166 33 -52 6 -127 17 -168 25 -73 14 -206 25 -544 46
-175 11 -540 22 -546 16z m-278 -806 c90 -11 189 -25 219 -31 90 -18 250 -70
323 -105 38 -18 88 -36 111 -39 41 -6 46 -5 82 32 50 50 117 93 147 93 12 0
31 6 42 14 59 40 247 53 490 32 259 -23 344 -47 399 -113 27 -32 30 -44 38
-151 7 -78 6 -145 -1 -203 -6 -47 -11 -118 -11 -157 0 -61 -3 -73 -20 -82 -11
-6 -20 -17 -20 -25 0 -7 9 -17 20 -20 13 -4 20 -15 20 -31 0 -14 5 -34 10 -45
10 -18 7 -19 -55 -19 -64 0 -65 1 -79 33 -21 51 -59 79 -118 88 -56 9 -210 3
-293 -11 -27 -5 -79 -12 -115 -16 -36 -3 -94 -12 -130 -20 -95 -20 -94 -21
-123 46 -15 36 -32 60 -41 60 -19 0 -38 -34 -36 -63 1 -12 2 -43 1 -69 -1 -40
-4 -48 -20 -48 -18 0 -18 7 -13 105 4 87 2 105 -10 105 -8 0 -19 -5 -25 -11
-9 -9 -14 -1 -22 29 -11 38 -34 61 -45 43 -3 -5 1 -42 10 -82 9 -41 13 -91 10
-112 -6 -33 -4 -39 14 -44 11 -3 20 -12 20 -19 0 -11 -20 -14 -90 -14 -49 0
-90 3 -90 6 0 3 11 20 23 37 26 35 57 112 57 140 0 40 -32 29 -99 -37 -38 -36
-75 -66 -83 -66 -7 -1 -93 -1 -190 -1 -254 0 -531 -26 -618 -59 -48 -17 -78
-20 -236 -20 l-181 0 -7 88 c-4 48 -9 157 -12 242 -3 85 -10 191 -15 235 -6
44 -7 93 -4 109 3 16 0 44 -7 63 -15 40 -8 47 56 57 22 4 51 13 63 21 19 13
151 39 243 48 99 10 264 5 411 -13z m2008 -37 c19 -13 28 -14 42 -5 41 26 52
16 45 -41 -14 -108 -26 -225 -37 -347 -8 -97 -14 -128 -27 -138 -43 -32 -123
-82 -132 -82 -12 0 -13 37 -1 44 4 3 7 88 6 188 -2 171 -9 228 -40 326 -7 19
-4 22 23 22 21 0 37 8 49 25 21 29 40 31 72 8z m-3069 -48 c0 -3 -7 -17 -16
-30 -26 -40 0 -40 121 -1 60 20 112 32 116 28 7 -9 29 -176 29 -225 l0 -35
-148 1 c-113 2 -153 -1 -165 -12 -9 -7 -15 -17 -12 -21 2 -4 69 -7 148 -7 84
0 152 -5 164 -11 18 -10 21 -25 28 -159 4 -81 10 -181 14 -220 l7 -73 -292 0
-292 0 -7 63 c-9 83 -10 134 -6 380 3 206 3 208 27 223 14 10 34 14 51 10 21
-5 50 5 123 42 97 51 110 56 110 47z m3098 -557 c-2 -26 -14 -39 -63 -74 -62
-45 -85 -53 -85 -32 0 14 129 138 143 138 5 0 7 -14 5 -32z m-13 -175 c-6 -32
-7 -33 -60 -33 -33 0 -55 5 -58 13 -2 6 23 37 57 68 l61 57 3 -36 c2 -20 1
-51 -3 -69z m-1150 -173 c-28 -12 -45 -12 -45 0 0 6 15 10 33 9 27 0 29 -2 12
-9z m-2353 -122 l3 -81 34 81 35 82 48 0 c26 0 48 -2 48 -4 0 -3 -20 -48 -45
-102 -25 -53 -45 -104 -45 -114 0 -10 20 -61 45 -114 25 -54 45 -99 45 -102 0
-2 -21 -4 -48 -4 l-47 0 -37 83 -37 82 -1 -82 0 -83 -45 0 -45 0 0 220 0 220
45 0 44 0 3 -82z m419 63 c24 -19 24 -22 24 -201 0 -179 0 -182 -24 -201 -19
-15 -39 -19 -108 -19 -76 0 -86 2 -109 25 l-25 25 3 176 c3 171 4 176 27 195
34 28 178 28 212 0z m204 -83 c21 -57 39 -105 41 -107 4 -4 16 25 58 137 l28
72 44 0 44 0 0 -220 0 -220 -45 0 -45 0 0 98 -1 97 -33 -80 c-17 -44 -36 -89
-40 -100 -6 -16 -16 1 -46 80 l-39 100 -1 -97 0 -98 -45 0 -45 0 0 220 0 220
44 0 44 0 37 -102z m365 -118 l0 -220 -45 0 -45 0 0 220 0 220 45 0 45 0 0
-220z m152 138 l3 -81 34 81 35 82 48 0 c26 0 48 -2 48 -4 0 -3 -20 -48 -45
-102 -25 -53 -45 -104 -45 -114 0 -10 20 -61 45 -114 25 -54 45 -99 45 -102 0
-2 -21 -4 -48 -4 l-47 0 -37 83 -37 82 -1 -82 0 -83 -45 0 -45 0 0 220 0 220
45 0 44 0 3 -82z m427 56 c12 -15 21 -41 21 -60 0 -29 -4 -34 -22 -34 -13 0
-33 -3 -45 -6 -19 -5 -23 -2 -23 15 0 18 -6 21 -45 21 l-45 0 0 -45 0 -45 69
0 c64 0 71 -2 91 -27 19 -25 21 -38 18 -111 -4 -111 -16 -122 -133 -122 -101
0 -127 15 -129 75 -1 39 -1 40 42 46 36 5 42 3 42 -13 0 -15 8 -18 45 -18 l45
0 0 40 0 40 -65 0 c-57 0 -69 3 -91 26 -25 24 -26 30 -22 115 4 120 14 129
138 129 84 0 90 -1 109 -26z m302 7 c24 -19 24 -22 24 -201 0 -179 0 -182 -24
-201 -19 -15 -39 -19 -108 -19 -76 0 -86 2 -109 25 l-25 25 3 176 c3 171 4
176 27 195 34 28 178 28 212 0z m164 -58 c10 -43 23 -103 30 -133 l12 -55 16
70 c8 39 21 98 28 133 l12 62 43 0 c24 0 44 -5 44 -10 0 -9 -69 -337 -85 -407
-5 -20 -12 -23 -60 -23 -30 0 -55 3 -55 8 0 6 -72 351 -85 410 -5 20 -2 22 39
22 l45 0 16 -77z m471 46 c-3 -17 -6 -38 -6 -45 0 -11 -18 -14 -75 -14 l-75 0
0 -45 0 -45 65 0 c70 0 70 0 59 -59 -6 -30 -7 -31 -65 -31 l-59 0 0 -40 0 -40
81 0 82 0 -7 -31 c-3 -17 -6 -38 -6 -45 0 -11 -25 -14 -120 -14 l-120 0 0 220
0 220 126 0 127 0 -7 -31z m353 -71 l40 -103 0 103 1 102 45 0 45 0 0 -220 0
-220 -44 0 -44 0 -41 103 -40 102 -1 -102 0 -103 -45 0 -45 0 0 220 0 220 44
0 45 0 40 -102z m412 83 c24 -19 24 -22 24 -201 0 -179 0 -182 -24 -201 -19
-15 -39 -19 -108 -19 -76 0 -86 2 -109 25 l-25 25 3 176 c3 171 4 176 27 195
34 28 178 28 212 0z m164 -58 c10 -43 23 -103 30 -133 l12 -55 16 70 c8 39 21
98 28 133 l12 62 43 0 c24 0 44 -5 44 -10 0 -9 -69 -337 -85 -407 -5 -20 -12
-23 -60 -23 -30 0 -55 3 -55 8 0 6 -72 351 -85 410 -5 20 -2 22 39 22 l45 0
16 -77z m325 -143 l0 -220 -45 0 -45 0 0 220 0 220 45 0 45 0 0 -220z m179
118 l40 -103 0 103 1 102 45 0 45 0 0 -220 0 -220 -44 0 -44 0 -41 103 -40
102 -1 -102 0 -103 -45 0 -45 0 0 220 0 220 44 0 45 0 40 -102z m280 50 c21
-83 26 -85 45 -14 l18 66 49 0 49 0 -45 -126 c-41 -115 -45 -135 -45 -220 l0
-94 -45 0 -45 0 0 88 c0 77 -5 104 -44 220 l-45 132 48 0 47 0 13 -52z m-4179
-644 c0 -87 23 -163 77 -256 65 -111 72 -77 13 62 -37 86 -40 101 -40 182 l0
88 44 0 c62 0 69 -13 45 -84 -10 -33 -19 -67 -19 -78 0 -10 17 -55 39 -101 38
-82 74 -195 87 -274 8 -52 38 -84 58 -62 12 12 12 24 -4 84 -10 39 -23 83 -29
99 -28 71 -50 247 -36 284 5 13 10 11 30 -13 26 -33 44 -28 28 7 -6 13 -29 48
-52 78 l-42 55 73 3 c79 3 83 1 120 -66 37 -69 92 -59 115 21 l14 47 876 -2
877 -3 23 -90 c12 -49 27 -134 32 -189 5 -54 14 -103 19 -108 16 -16 32 1 32
33 0 16 2 29 5 29 17 0 84 -52 90 -69 3 -11 1 -38 -5 -60 -13 -49 -61 -81 -92
-62 -27 17 -36 14 -43 -16 -3 -16 -19 -44 -35 -63 l-29 -35 -120 -3 -121 -4
-28 29 c-37 40 -61 52 -125 59 -80 9 -165 -23 -107 -41 40 -13 18 -25 -45 -25
l-64 0 -7 35 c-14 76 2 116 71 185 l64 64 25 -27 c57 -61 63 -4 7 66 -8 9 -22
17 -32 17 -27 0 -100 -53 -137 -99 -18 -23 -38 -41 -43 -41 -6 0 -47 -22 -92
-49 -71 -44 -93 -51 -167 -61 -185 -25 -200 -28 -238 -59 -49 -39 -106 -156
-148 -306 -22 -76 -38 -209 -30 -231 8 -17 10 -16 22 11 7 17 13 41 14 55 0
14 10 52 21 85 11 33 24 80 30 105 11 52 77 192 108 232 23 29 67 42 205 59
85 11 181 46 233 85 17 13 34 20 37 16 10 -16 28 -97 30 -135 2 -21 7 -42 12
-47 5 -5 36 -10 69 -12 l60 -4 -5 -39 c-8 -67 -6 -173 5 -184 6 -5 28 -12 50
-14 21 -3 41 -10 43 -16 5 -14 23 -14 59 1 35 14 94 17 110 5 37 -26 323 -7
365 24 22 17 23 23 24 169 l1 152 29 14 c39 21 64 44 64 61 0 7 7 13 15 13 8
0 15 -4 15 -9 0 -16 132 -86 220 -117 110 -38 151 -76 179 -170 21 -67 41
-236 41 -351 0 -64 13 -90 25 -51 4 12 7 76 8 142 0 132 -16 217 -57 311 -43
96 -74 126 -173 169 -48 21 -95 44 -103 50 -8 7 -47 31 -87 55 -64 38 -72 47
-84 87 -17 55 -27 65 -92 84 -37 11 -51 20 -52 35 -5 58 -27 204 -35 228 l-9
27 539 0 540 0 -6 -47 c-4 -29 -14 -54 -25 -63 -28 -22 -66 -246 -98 -570 -5
-60 -8 -65 -29 -65 l-24 0 0 -221 c0 -229 -17 -438 -43 -527 -30 -102 -153
-271 -257 -352 -54 -42 -58 -43 -58 -22 0 36 -12 68 -23 64 -6 -2 -18 -31 -27
-65 -9 -34 -29 -76 -43 -94 -15 -18 -54 -69 -88 -113 -116 -154 -126 -162
-214 -191 -201 -64 -703 -62 -885 4 -70 26 -150 113 -200 219 -23 48 -49 103
-58 122 -16 33 -37 49 -49 38 -3 -4 13 -53 36 -111 22 -58 41 -107 41 -110 0
-14 -207 131 -249 175 -9 9 -83 86 -166 170 -229 235 -281 295 -310 353 -37
75 -66 272 -68 453 -2 133 -4 144 -24 165 -12 12 -25 19 -28 16 -4 -3 -9 -37
-11 -75 -7 -92 -7 -93 -54 -93 -90 0 -176 73 -211 179 -14 40 -144 270 -195
342 -59 85 -72 135 -89 342 l-6 77 25 0 c26 0 26 -1 26 -76z m453 56 c-8 -30
-24 -36 -40 -15 -19 28 -16 35 16 35 24 0 28 -3 24 -20z m3149 -77 c-18 -122
-22 -136 -32 -103 -27 91 -30 136 -15 188 3 6 17 12 33 12 l28 0 -14 -97z m97
-78 c0 -162 -1 -179 -25 -242 -36 -96 -171 -353 -209 -399 l-32 -38 -62 19
c-66 20 -80 30 -62 48 6 6 11 43 11 81 1 39 5 91 11 116 5 25 14 74 19 109 6
36 17 85 26 110 9 25 19 64 24 86 5 22 17 77 28 123 10 46 22 84 26 85 5 1 19
-34 31 -78 19 -64 22 -89 15 -130 -12 -73 -36 -168 -47 -190 -5 -11 -20 -42
-33 -68 -13 -27 -34 -58 -47 -70 -12 -12 -23 -29 -23 -39 0 -17 77 -68 104
-68 30 0 29 24 -3 52 -37 33 -35 51 9 76 18 10 28 23 25 31 -3 7 6 24 20 37
17 16 25 34 25 57 0 18 5 38 12 45 6 6 16 44 22 84 9 59 15 73 29 72 20 -2 31
33 47 156 15 108 15 110 39 110 19 0 20 -7 20 -175z m-3175 -887 c3 -29 6 -75
6 -103 0 -58 31 -195 57 -251 20 -44 53 -91 104 -148 110 -124 282 -303 367
-380 99 -91 257 -202 302 -213 14 -3 39 -23 57 -43 17 -20 55 -55 85 -78 45
-35 66 -43 138 -56 249 -43 395 -53 556 -36 143 15 286 42 334 62 39 17 118
86 152 134 13 17 42 57 65 87 24 31 43 60 43 65 0 5 18 21 40 36 22 14 63 44
92 66 29 22 56 40 60 40 4 0 7 -39 6 -87 0 -49 2 -106 6 -129 l7 -40 -119
-130 c-66 -72 -139 -146 -163 -165 -51 -39 -37 -27 -174 -154 l-108 -100 -72
-150 c-40 -82 -78 -168 -85 -190 -21 -63 -59 -145 -68 -145 -5 0 -35 52 -67
115 -32 63 -62 115 -65 115 -4 0 -12 12 -19 27 -7 15 -39 67 -72 116 -32 48
-59 91 -59 94 0 11 -62 83 -72 83 -10 0 -90 69 -251 217 -61 57 -113 96 -133
102 -19 5 -46 19 -61 30 -52 40 -132 106 -209 174 -43 37 -130 102 -194 144
-63 42 -144 99 -180 128 -66 51 -81 63 -156 113 -23 15 -78 62 -123 103 -82
76 -83 77 -86 130 -2 30 -8 99 -13 154 -6 55 -11 134 -11 177 -1 42 -5 87 -10
101 -12 32 -7 37 44 37 l42 0 7 -52z"/>
<path d="M4129 5056 c-48 -7 -92 -17 -100 -21 -7 -5 -40 -11 -73 -14 -47 -5
-62 -10 -64 -23 -3 -15 4 -18 46 -18 28 0 103 10 169 21 76 14 159 21 236 21
81 0 117 3 114 11 -10 30 -198 43 -328 23z"/>
<path d="M2905 5034 c-200 -36 -425 -119 -425 -155 0 -25 19 -24 88 5 83 35
245 84 335 101 102 19 267 19 337 0 82 -23 120 -29 120 -19 -1 22 -21 37 -76
56 -77 27 -265 33 -379 12z"/>
<path d="M4502 5031 c-18 -11 0 -24 71 -51 31 -12 70 -32 86 -46 37 -31 51
-30 51 1 0 31 -25 48 -120 80 -40 14 -74 25 -74 25 -1 0 -7 -4 -14 -9z"/>
<path d="M4200 4900 c-134 -22 -210 -49 -210 -72 0 -23 1 -23 112 8 111 30
317 43 412 25 67 -12 137 -43 179 -77 30 -25 57 -22 57 6 0 36 -86 82 -190
103 -121 25 -242 27 -360 7z"/>
<path d="M2878 4860 c-43 -5 -86 -13 -95 -19 -10 -5 -48 -17 -83 -26 -86 -22
-250 -101 -250 -121 0 -25 26 -26 71 -3 73 37 270 100 364 116 125 22 313 14
380 -16 26 -11 54 -21 61 -21 17 0 18 34 2 48 -46 37 -291 60 -450 42z"/>
<path d="M1984 4998 c-13 -21 19 -31 115 -36 90 -4 101 -3 101 12 0 22 -7 23
-117 30 -58 3 -95 1 -99 -6z"/>
<path d="M1840 4170 l0 -130 45 0 45 0 0 130 0 130 -45 0 -45 0 0 -130z"/>
<path d="M3290 4170 l0 -130 45 0 45 0 0 130 0 130 -45 0 -45 0 0 -130z"/>
<path d="M4690 4170 l0 -130 45 0 45 0 0 130 0 130 -45 0 -45 0 0 -130z"/>
<path d="M4285 2900 c-8 -13 13 -40 31 -40 8 0 14 -4 14 -9 0 -14 -70 -69
-115 -91 -41 -19 -58 -22 -290 -40 -71 -6 -164 -15 -205 -21 -50 -6 -98 -6
-140 1 -100 16 -394 49 -484 55 -45 3 -98 10 -119 16 -21 6 -47 7 -57 4 -43
-14 -9 30 52 68 29 18 29 47 1 47 -42 0 -163 -138 -163 -186 0 -24 24 -49 39
-40 5 3 7 15 4 25 -7 29 11 33 64 15 33 -11 65 -15 103 -11 81 9 358 -11 472
-33 117 -24 156 -24 263 -6 44 8 147 17 230 21 82 4 169 13 194 21 45 13 113
56 163 102 18 17 32 22 47 17 15 -4 21 -2 21 9 0 8 -4 18 -10 21 -5 3 -10 15
-10 27 0 15 -5 19 -18 16 -11 -3 -30 1 -43 8 -29 16 -36 17 -44 4z"/>
<path d="M4689 2873 c-3 -32 4 -131 11 -143 8 -13 9 -13 14 0 10 33 14 116 5
132 -10 18 -28 24 -30 11z"/>
<path d="M2446 2828 c-9 -36 -7 -207 4 -272 5 -33 16 -66 23 -74 12 -11 13 14
10 165 -3 98 -6 184 -8 191 -7 19 -22 14 -29 -10z"/>
<path d="M3136 2521 c-7 -11 54 -90 70 -90 5 -1 30 -11 54 -22 44 -21 48 -21
180 -8 74 7 230 13 345 14 l210 0 60 30 c43 22 61 36 63 53 4 26 -7 27 -64 7
-26 -9 -60 -12 -90 -9 -108 12 -350 10 -457 -3 -150 -19 -262 -14 -311 15 -41
24 -52 27 -60 13z"/>
<path d="M5260 5684 c0 -9 5 -14 12 -12 18 6 21 28 4 28 -9 0 -16 -7 -16 -16z"/>
</g>
</svg>
