<?xml version="1.0" standalone="no"?>
<!DOCTYPE svg PUBLIC "-//W3C//DTD SVG 20010904//EN"
 "http://www.w3.org/TR/2001/REC-SVG-20010904/DTD/svg10.dtd">
<svg version="1.0" xmlns="http://www.w3.org/2000/svg"
 width="2160.000000pt" height="2160.000000pt" viewBox="0 0 2160.000000 2160.000000"
 preserveAspectRatio="xMidYMid meet">
<metadata>
Created by potrace 1.11, written by Peter Selinger 2001-2013
</metadata>
<g transform="translate(0.000000,2160.000000) scale(0.100000,-0.100000)"
fill="#000000" stroke="none">
<path d="M10380 16549 c-719 -34 -1383 -173 -2157 -452 -94 -34 -439 -184
-479 -208 -17 -10 -38 -19 -45 -19 -8 0 -31 -11 -51 -25 -20 -14 -43 -25 -51
-25 -8 0 -30 -10 -49 -23 -18 -13 -49 -29 -66 -35 -18 -6 -46 -20 -61 -32 -16
-11 -33 -20 -39 -20 -5 0 -43 -20 -83 -43 -267 -157 -373 -222 -416 -252 -26
-19 -100 -69 -163 -111 -130 -87 -265 -184 -295 -212 -11 -11 -51 -43 -90 -73
-397 -306 -880 -794 -1177 -1189 -40 -52 -85 -108 -101 -125 -16 -16 -45 -55
-65 -86 -105 -160 -243 -367 -260 -389 -11 -14 -29 -44 -40 -67 -12 -23 -26
-44 -32 -48 -5 -3 -10 -12 -10 -19 0 -7 -25 -54 -55 -104 -117 -194 -485 -971
-485 -1023 0 -7 -16 -49 -34 -94 -79 -183 -226 -725 -290 -1065 -99 -528 -111
-669 -111 -1340 0 -586 4 -670 50 -987 80 -548 168 -900 380 -1513 13 -36 63
-157 113 -270 202 -463 457 -929 687 -1255 58 -82 112 -165 120 -182 9 -18 21
-33 29 -33 7 0 17 -10 23 -22 16 -34 209 -273 359 -443 172 -195 518 -537 705
-695 35 -30 68 -60 72 -67 4 -7 14 -13 21 -13 8 0 19 -7 26 -15 43 -51 568
-431 690 -498 30 -17 64 -38 75 -48 31 -28 310 -181 528 -290 246 -123 475
-227 632 -287 183 -69 608 -212 629 -212 11 0 56 -11 100 -25 94 -28 441 -109
536 -124 561 -92 975 -126 1395 -116 671 16 888 33 1305 106 196 34 585 120
645 142 22 9 56 18 75 20 29 4 319 102 630 212 92 32 310 130 544 244 199 96
568 296 616 333 41 31 93 66 130 87 19 10 55 34 80 52 25 18 90 63 146 100
148 98 575 444 754 611 270 253 507 513 770 849 195 249 274 363 453 659 147
244 492 941 556 1127 27 75 85 240 100 278 20 53 128 417 149 505 106 429 173
865 203 1305 15 224 6 907 -15 1105 -46 441 -98 741 -191 1105 -131 513 -278
901 -540 1425 -98 196 -293 548 -325 585 -9 11 -35 52 -59 90 -52 88 -210 313
-276 396 -27 34 -57 72 -65 84 -123 178 -474 562 -756 826 -264 248 -411 368
-707 582 -67 48 -133 97 -146 108 -13 11 -38 27 -55 36 -17 8 -53 32 -81 52
-27 20 -95 63 -150 95 -55 33 -116 70 -136 83 -19 12 -40 23 -46 23 -6 0 -33
15 -59 33 -71 47 -673 334 -852 406 -161 65 -569 203 -707 239 -601 158 -984
218 -1538 243 -133 5 -289 15 -347 21 -147 14 -364 17 -570 7z m-311 -1301
c-18 -34 -175 -269 -200 -298 -38 -46 -412 -590 -530 -770 -27 -41 -58 -86
-69 -100 -29 -37 -67 -91 -87 -123 -10 -16 -98 -144 -195 -285 -98 -140 -178
-261 -178 -269 0 -7 -4 -13 -10 -13 -5 0 -26 -25 -46 -55 -20 -30 -40 -55 -44
-55 -3 0 -14 -16 -23 -35 -9 -19 -65 -104 -124 -190 -340 -489 -439 -633 -505
-734 -31 -47 -67 -99 -80 -115 -13 -17 -45 -62 -72 -100 -26 -39 -52 -73 -56
-76 -4 -3 -17 -23 -28 -45 -11 -22 -55 -87 -97 -145 -71 -98 -187 -267 -475
-690 -66 -96 -125 -181 -132 -189 -7 -8 -46 -64 -87 -125 -41 -61 -102 -149
-136 -196 -34 -47 -128 -184 -208 -305 -81 -121 -155 -231 -166 -245 -27 -34
-71 -97 -141 -205 -33 -49 -77 -112 -98 -140 -21 -27 -83 -115 -136 -195 -53
-80 -104 -154 -112 -165 -36 -47 -100 -139 -190 -275 -54 -80 -109 -161 -124
-180 -15 -19 -60 -82 -99 -140 -40 -58 -114 -165 -164 -239 -51 -73 -120 -174
-154 -225 -35 -50 -63 -96 -63 -103 0 -7 -4 -13 -9 -13 -5 0 -32 -35 -62 -77
-55 -81 -68 -95 -81 -87 -12 8 -46 126 -62 216 -8 46 -26 144 -39 218 -192
1037 -62 2198 358 3214 107 259 277 599 355 711 11 17 57 90 101 164 79 132
162 257 184 276 6 6 21 27 34 48 48 79 238 314 405 502 191 213 516 512 784
719 148 114 478 332 662 437 176 101 474 246 670 327 162 67 529 189 750 250
205 56 635 139 738 141 52 1 52 1 41 -21z m2594 -223 c419 -132 799 -299 1188
-523 238 -136 706 -461 732 -508 4 -7 14 -14 22 -14 7 0 22 -11 33 -25 11 -14
23 -25 27 -25 3 0 66 -52 138 -116 250 -222 544 -534 730 -779 42 -55 94 -122
115 -150 77 -99 282 -414 282 -433 0 -6 10 -23 23 -39 63 -78 264 -464 347
-668 102 -249 154 -389 190 -510 21 -71 43 -143 50 -159 12 -33 76 -283 115
-453 29 -128 88 -525 106 -713 16 -162 16 -652 0 -850 -24 -302 -71 -617 -131
-878 -39 -171 -115 -441 -128 -454 -6 -6 -27 23 -62 89 -30 54 -88 159 -130
233 -69 121 -790 1415 -864 1550 -16 30 -36 61 -43 68 -7 7 -13 20 -13 28 0 8
-16 39 -35 69 -19 30 -48 81 -65 112 -17 32 -52 94 -77 138 -25 44 -60 107
-78 140 -85 156 -141 257 -186 335 -27 47 -65 116 -85 155 -20 38 -62 113 -92
165 -85 146 -114 198 -511 914 -205 368 -385 689 -401 713 -17 24 -30 49 -30
56 0 7 -14 35 -31 62 -17 28 -61 106 -98 175 -86 158 -258 468 -301 540 -39
68 -221 396 -303 548 -33 61 -64 112 -69 112 -4 0 -8 7 -8 16 0 9 -22 53 -50
99 -27 46 -50 86 -50 91 0 4 -18 35 -39 68 -21 34 -73 124 -114 201 -41 77
-93 172 -115 210 -23 39 -54 95 -71 126 -16 31 -46 82 -65 115 -20 32 -36 65
-36 73 0 8 -6 19 -14 25 -7 6 -31 45 -53 86 l-40 75 56 -17 c31 -9 136 -42
234 -73z m-1835 -7313 l-3 -2156 -106 174 c-58 96 -137 225 -174 285 -60 96
-199 325 -403 661 -34 56 -69 107 -77 114 -8 7 -15 23 -15 36 0 13 -4 24 -10
24 -5 0 -19 19 -31 43 -12 23 -36 62 -53 87 -17 25 -44 70 -61 101 -16 30 -52
89 -78 130 -27 41 -115 184 -197 319 -166 274 -211 347 -250 405 -15 22 -51
83 -80 135 -30 52 -61 104 -71 115 -10 11 -36 54 -60 95 -66 119 -260 433
-281 456 -10 11 -18 25 -18 32 0 6 -10 27 -22 45 -13 19 -31 48 -41 63 -9 16
-38 63 -65 105 -26 41 -84 136 -128 210 -45 73 -114 188 -154 254 -40 66 -83
133 -95 150 -13 16 -35 55 -50 85 -15 30 -39 71 -54 90 -14 19 -35 51 -46 71
-11 21 -50 88 -87 148 -38 61 -68 121 -68 134 0 20 78 146 138 223 12 16 69
99 125 184 56 85 160 237 230 337 70 101 135 198 144 218 9 19 20 35 23 35 4
0 24 25 44 55 20 30 40 55 45 55 5 0 11 8 13 18 5 17 104 165 331 491 48 69
118 171 156 226 38 55 76 106 85 114 9 7 16 19 16 25 1 6 57 92 125 191 68 99
178 261 244 360 67 99 127 187 135 195 17 20 70 96 126 181 25 37 88 130 141
206 218 314 276 400 295 433 10 19 24 38 30 42 7 4 26 30 44 58 18 27 36 50
41 50 5 0 9 5 9 11 0 6 53 89 118 186 l117 175 3 -2162 c1 -1189 1 -3132 0
-4318z m1343 5528 c50 -91 104 -184 120 -207 16 -23 29 -48 29 -55 0 -8 14
-36 32 -64 17 -27 54 -92 83 -144 161 -296 278 -507 289 -520 7 -8 39 -64 71
-125 32 -60 136 -247 230 -415 94 -168 281 -503 415 -745 134 -242 264 -476
290 -520 26 -44 66 -117 90 -162 23 -46 46 -83 50 -83 4 0 11 -11 14 -25 4
-14 22 -49 40 -78 18 -28 48 -79 65 -112 18 -33 53 -96 78 -140 25 -44 65
-118 90 -165 25 -47 60 -110 78 -140 18 -30 55 -95 82 -145 27 -49 116 -209
198 -355 81 -146 202 -362 268 -480 263 -472 362 -646 379 -669 10 -13 18 -32
18 -41 0 -10 7 -24 16 -31 9 -7 27 -38 40 -67 13 -30 46 -91 72 -136 27 -44
70 -116 95 -160 26 -43 47 -87 47 -97 0 -11 4 -19 9 -19 6 0 32 -42 59 -92 27
-51 128 -235 225 -408 97 -173 179 -329 183 -346 6 -34 -8 -68 -73 -170 -77
-122 -114 -174 -123 -174 -5 0 -11 -9 -15 -19 -7 -23 -132 -199 -202 -285
-304 -374 -782 -842 -1067 -1043 -17 -12 -56 -40 -86 -62 -111 -81 -405 -274
-454 -299 -28 -14 -60 -33 -71 -42 -46 -38 -357 -198 -528 -271 -75 -32 -145
-63 -155 -69 -9 -5 -42 -18 -72 -29 -30 -10 -154 -54 -275 -96 -121 -42 -278
-92 -350 -110 -71 -19 -190 -49 -262 -68 l-133 -35 0 1221 c0 1756 13 8468 16
8464 2 -1 44 -77 95 -167z m-4832 -4445 c86 -145 194 -320 201 -325 4 -3 17
-23 28 -46 11 -22 28 -46 36 -53 9 -8 16 -22 16 -33 0 -10 9 -29 21 -41 19
-20 168 -262 227 -367 14 -25 33 -54 42 -65 10 -11 86 -132 170 -270 84 -137
156 -252 160 -255 3 -3 19 -29 35 -57 15 -29 32 -53 37 -53 4 0 8 -9 8 -19 0
-11 21 -49 48 -85 26 -35 70 -103 97 -151 28 -47 67 -109 88 -136 20 -27 37
-56 37 -65 0 -9 9 -28 20 -42 32 -41 77 -113 283 -452 22 -36 52 -83 67 -105
28 -40 106 -166 188 -305 24 -41 66 -108 93 -149 27 -40 49 -79 49 -86 0 -7 7
-18 16 -26 8 -7 25 -31 36 -53 11 -23 28 -50 37 -61 10 -11 67 -101 126 -200
60 -99 134 -219 164 -266 31 -48 88 -139 126 -203 39 -64 97 -158 130 -209 33
-51 66 -103 73 -117 28 -53 49 -88 107 -177 33 -50 91 -142 128 -205 68 -111
82 -134 142 -228 17 -25 39 -61 50 -79 11 -18 39 -63 62 -100 47 -73 52 -90
26 -92 -72 -5 -467 36 -683 72 -318 52 -758 165 -1015 260 -16 6 -66 24 -110
39 -215 75 -595 254 -835 393 -406 235 -656 416 -1047 758 -102 90 -442 440
-528 544 -27 33 -66 78 -87 101 -22 22 -47 54 -56 71 -9 17 -39 59 -67 93
-126 156 -435 636 -435 675 0 19 39 82 92 150 21 28 62 86 90 130 28 44 76
114 107 155 31 41 78 110 106 152 27 42 59 91 70 107 26 40 311 449 335 481
11 14 69 99 131 190 62 91 125 181 141 200 16 19 56 77 89 128 32 51 81 121
107 155 27 34 55 73 62 87 23 45 232 345 249 358 14 11 19 9 40 -15 13 -15 44
-64 70 -108z"/>
</g>
</svg>
